<?xml version="1.0" encoding="utf-8"?>
<!-- Generator: Adobe Illustrator 21.1.0, SVG Export Plug-In . SVG Version: 6.00 Build 0)  -->
<svg version="1.1" id="Layer_1" xmlns="http://www.w3.org/2000/svg" xmlns:xlink="http://www.w3.org/1999/xlink" x="0px" y="0px"
	 viewBox="0 0 497 497" style="enable-background:new 0 0 497 497;" xml:space="preserve">
<style type="text/css">
	.st0{fill:#03A9F4;}
	.st1{opacity:0.1;}
	.st2{fill:#FFFFFF;}
</style>
<g>
	<path class="st0" d="M248.5,497L248.5,497C111.3,497,0,385.7,0,248.5l0,0C0,111.3,111.3,0,248.5,0l0,0C385.7,0,497,111.3,497,248.5
		l0,0C497,385.7,385.7,497,248.5,497z"/>
</g>
<g class="st1">
	<g>
		<path d="M207.6,313.2c-12.7-0.7-24-4.8-33.7-12.3s-17.3-18-22.7-31.5s-8-29-8-46.3c0-28.6,7.8-51.2,23.5-67.7
			c15.6-16.5,37.7-24.7,66.3-24.7h9c17.9,0,33.6,3.7,47,11.2c13.4,7.4,23.8,18.1,31.1,32.1c7.3,14,11,30.1,11,48.5
			c0,26.4-5.8,47.7-17.5,63.8c-11.7,16.1-27.8,25.2-48.3,27.4v-52.4c11.1-0.4,19.1-3.7,24-10c4.9-6.3,7.3-15.9,7.3-28.7
			c0-13.1-4.1-22.7-12.3-28.7c-8.2-6.1-21.3-9.3-39.3-9.6h-12.9c-19.5,0-33.4,2.9-41.8,8.8c-8.4,5.8-12.6,15.9-12.6,30.2
			c0,12.1,2.4,21.3,7.2,27.7c4.8,6.4,12.3,9.8,22.7,10.2V313.2z"/>
	</g>
	<g>
		<g>
			<path d="M360.8,350.4l-0.7-88l48.7-0.3l1.1,138.6l-262.4,1.7l-0.4-50.6L360.8,350.4z"/>
		</g>
	</g>
</g>
<g>
	<g>
		<path class="st2" d="M181.6,287.2c-12.7-0.7-24-4.8-33.7-12.3s-17.3-18-22.7-31.5c-5.4-13.5-8-29-8-46.3
			c0-28.6,7.8-51.2,23.5-67.7c15.6-16.5,37.7-24.7,66.3-24.7h9c17.9,0,33.6,3.7,47,11.2c13.4,7.4,23.8,18.1,31.1,32.1
			c7.3,14,11,30.1,11,48.5c0,26.4-5.8,47.7-17.5,63.8s-27.8,25.2-48.3,27.4v-52.4c11.1-0.4,19.1-3.7,24-10s7.3-15.9,7.3-28.7
			c0-13.1-4.1-22.7-12.3-28.7c-8.2-6.1-21.3-9.3-39.3-9.6h-12.9c-19.5,0-33.4,2.9-41.8,8.8c-8.4,5.8-12.6,15.9-12.6,30.2
			c0,12.1,2.4,21.3,7.2,27.7s12.3,9.8,22.7,10.2L181.6,287.2L181.6,287.2z"/>
	</g>
	<g>
		<g>
			<path class="st2" d="M334.7,324.4l-0.7-88l48.7-0.3l1.1,138.6l-262.4,1.7l-0.4-50.6L334.7,324.4z"/>
		</g>
	</g>
</g>
</svg>
