<?xml version="1.0" encoding="utf-8"?>
<!-- Generator: Adobe Illustrator 21.1.0, SVG Export Plug-In . SVG Version: 6.00 Build 0)  -->
<svg version="1.1" id="Layer_1" xmlns="http://www.w3.org/2000/svg" xmlns:xlink="http://www.w3.org/1999/xlink" x="0px" y="0px"
	 viewBox="0 0 300 200" style="enable-background:new 0 0 300 200;" xml:space="preserve">
<style type="text/css">
	.st0{fill:#767676;}
</style>
<g>
	<path class="st0" d="M177,114H27c-7.7,0-14-6.3-14-14l0,0c0-7.7,6.3-14,14-14h150c7.7,0,14,6.3,14,14l0,0
		C191,107.7,184.7,114,177,114z"/>
</g>
<g>
	<path class="st0" d="M88,175V25c0-7.7,6.3-14,14-14l0,0c7.7,0,14,6.3,14,14v150c0,7.7-6.3,14-14,14l0,0C94.3,189,88,182.7,88,175z"
		/>
</g>
</svg>
